# xmcd
#
# Track frame offsets: 
#        150
#        12825
#        25800
#        37180
#        47955
#        60120
#        69431
#        81297
#        93179
#        104158
#        113851
#        122641
#        132138
#        143609
#        154733
#        165421
#        176771
#        188196
#        200002
#        209125
#        220291
#        231477
#        245471
#        254040
#        266662
#        276351
#        286398
#        298624
#        313626
#        325155
#
# Disc length: 4478 seconds
#
# Revision: 0
# Processed by: cddbd v1.5.2PL0 Copyright (c) Steve Scherf et al.
# Submitted via: ExactAudioCopy v1.3
#
DISCID=d0117c1e
DTITLE=Lefty Frizzell - CD04_Recordings 1955-58
DYEAR=2018
DGENRE=Country
TTITLE0=These Hands
TTITLE1=You Can't Divorce My Heart
TTITLE2=Treat Her Right
TTITLE3=Heart's Highway
TTITLE4=I'm A Boy Left Alone
TTITLE5=Just Can't Live That Fast (Anymore)
TTITLE6=The Waltz Of The Angels
TTITLE7=Lullaby Waltz
TTITLE8=Glad I Found You
TTITLE9=Now That You Are Gone
TTITLE10=Lefty Frizzell and Johnny Bond - From An Angel To A Devil
TTITLE11=Lefty Frizzell and Johnny Bond - Lover By Appointment
TTITLE12=Lefty Frizzell and Shirley Caddell - Sick, Sober And Sorry
TTITLE13=No One To Talk To (But The Blues)
TTITLE14=Is It Only That You're Lonely
TTITLE15=Mailman Bring Me No More Blues
TTITLE16=You've Still Got It
TTITLE17=Tell Me Dear
TTITLE18=To Stop Loving You (Means Cry)
TTITLE19=The Torch Within My Heart
TTITLE20=Time Out For The Blues
TTITLE21=I Love You A Thousand Ways
TTITLE22=If You've Got The Money I've Got The Time
TTITLE23=I Want To Be With You Always
TTITLE24=Mom And Dad's Waltz
TTITLE25=(Darling) Let's Turn Back The Years
TTITLE26=You Win Again
TTITLE27=Why Should I Be Lonely
TTITLE28=Signed, Sealed And Delivered
TTITLE29=Nobody Knows But Me
EXTD=
EXTT0=
EXTT1=
EXTT2=
EXTT3=
EXTT4=
EXTT5=
EXTT6=
EXTT7=
EXTT8=
EXTT9=
EXTT10=
EXTT11=
EXTT12=
EXTT13=
EXTT14=
EXTT15=
EXTT16=
EXTT17=
EXTT18=
EXTT19=
EXTT20=
EXTT21=
EXTT22=
EXTT23=
EXTT24=
EXTT25=
EXTT26=
EXTT27=
EXTT28=
EXTT29=
PLAYORDER=
